<?xml version="1.0" standalone="no"?>
<!DOCTYPE svg PUBLIC "-//W3C//DTD SVG 20010904//EN"
 "http://www.w3.org/TR/2001/REC-SVG-20010904/DTD/svg10.dtd">
<svg version="1.0" xmlns="http://www.w3.org/2000/svg"
 width="832.000000pt" height="832.000000pt" viewBox="0 0 832.000000 832.000000"
 preserveAspectRatio="xMidYMid meet">
<metadata>
Created by potrace 1.14, written by Peter Selinger 2001-2017
</metadata>
<g transform="translate(0.000000,832.000000) scale(0.100000,-0.100000)"
fill="#000000" stroke="none">
<path d="M4050 7103 c-178 -28 -360 -159 -448 -323 -23 -42 -51 -118 -57 -153
-3 -17 -8 -40 -11 -51 -13 -41 -5 -178 15 -254 48 -185 196 -356 363 -417 23
-9 50 -20 59 -25 70 -37 347 -27 398 14 8 6 15 10 15 8 2 -8 60 20 111 52 89
58 170 148 218 246 47 96 44 89 61 185 47 266 -93 535 -344 661 -102 51 -263
75 -380 57z"/>
<path d="M4027 5594 c-1 -1 -31 -5 -67 -8 -101 -11 -131 -15 -185 -26 -27 -6
-63 -13 -80 -16 -50 -9 -195 -55 -275 -86 -79 -31 -241 -107 -250 -117 -3 -3
-26 -17 -53 -31 -53 -28 -192 -125 -264 -185 -125 -105 -346 -346 -330 -361 2
-2 69 -7 148 -9 79 -3 155 -7 168 -9 12 -3 42 -8 65 -10 22 -3 52 -8 66 -11
14 -3 36 -7 50 -10 30 -6 52 -11 105 -25 22 -6 47 -12 55 -15 8 -2 35 -11 60
-20 71 -26 80 -26 119 3 20 15 38 29 41 32 10 10 68 42 155 86 189 95 366 136
585 138 137 1 224 -6 289 -24 20 -5 47 -11 61 -14 91 -17 383 -147 420 -186 3
-3 24 -20 48 -37 l43 -31 77 25 c42 13 84 27 92 30 8 3 20 7 25 8 6 2 30 8 53
14 124 34 291 55 448 55 l101 1 -16 25 c-8 14 -18 27 -21 30 -3 3 -18 22 -33
43 -45 59 -215 227 -297 292 -41 33 -77 62 -80 65 -3 3 -12 10 -21 15 -9 6
-36 23 -60 40 -24 16 -46 30 -49 30 -3 1 -21 11 -40 23 -118 75 -378 181 -540
221 -63 15 -204 39 -275 47 -56 6 -332 13 -338 8z"/>
<path d="M525 5183 c-54 -11 -161 -48 -167 -57 -4 -6 -8 -7 -8 -3 0 5 -13 -1
-29 -12 -16 -12 -32 -21 -35 -21 -15 0 -142 -121 -172 -165 -127 -182 -147
-432 -50 -635 17 -36 35 -70 41 -77 5 -6 28 -34 50 -60 22 -27 60 -65 85 -84
52 -39 155 -95 191 -104 117 -26 154 -31 219 -29 41 1 75 3 75 4 0 2 16 6 55
13 14 3 25 6 25 7 0 1 8 3 18 5 33 6 131 57 183 96 97 71 174 177 215 296 26
76 31 104 33 192 6 174 -61 338 -188 463 -43 43 -169 128 -188 128 -4 0 -19 5
-35 12 -79 32 -240 48 -318 31z"/>
<path d="M7550 5175 c-241 -58 -435 -259 -478 -498 -8 -45 -7 -173 1 -229 10
-63 56 -175 100 -240 104 -156 293 -262 483 -272 91 -4 216 15 243 37 8 7 16
10 18 9 6 -5 93 32 93 39 0 4 13 12 29 19 16 6 32 18 35 26 3 8 11 14 18 15
19 1 118 119 149 178 72 134 96 302 64 440 -52 220 -220 398 -438 466 -85 26
-230 30 -317 10z"/>
<path d="M2448 4484 c-2 -1 -32 -6 -68 -10 -113 -12 -147 -18 -270 -51 -251
-65 -447 -157 -680 -320 -175 -122 -389 -347 -515 -543 -69 -108 -178 -322
-191 -375 -1 -5 -8 -23 -15 -40 -6 -16 -13 -34 -14 -40 -2 -5 -12 -41 -24 -79
-12 -38 -24 -82 -27 -99 -2 -17 -6 -33 -8 -36 -2 -3 -7 -31 -11 -61 -4 -30 -8
-57 -10 -60 -18 -29 -26 -436 -12 -545 4 -27 9 -61 11 -75 1 -14 6 -38 9 -55
4 -16 9 -42 12 -57 11 -62 16 -82 30 -121 8 -23 15 -50 15 -59 0 -10 6 -32 14
-50 32 -75 44 -104 51 -128 28 -92 239 -448 268 -451 51 -5 1034 -3 1029 3 -4
3 -38 23 -77 43 -38 21 -72 41 -75 44 -3 3 -34 26 -69 50 -60 41 -186 159
-242 226 -47 57 -117 160 -151 225 -34 64 -94 206 -103 245 -3 11 -11 46 -19
78 -8 32 -17 77 -20 100 -3 23 -8 53 -11 67 -6 32 -6 232 0 290 14 127 56 286
100 386 42 94 79 164 88 164 4 0 7 5 7 10 0 40 169 239 290 341 47 40 82 64
215 146 21 13 61 33 118 57 l32 14 0 -151 c1 -157 12 -296 32 -377 3 -14 7
-34 9 -45 33 -199 153 -487 290 -695 l43 -65 485 0 c267 0 486 2 486 5 0 3
-37 30 -82 60 -73 47 -247 209 -302 279 -76 98 -197 321 -211 389 -2 9 -8 29
-14 45 -14 36 -39 145 -49 210 -8 61 -8 328 0 372 4 17 7 36 7 43 1 8 8 11 19
8 9 -3 35 -7 56 -11 123 -18 299 -85 434 -166 177 -105 386 -331 502 -544 18
-33 44 -80 58 -105 35 -62 254 -494 253 -498 -1 -1 2 -10 8 -19 7 -14 13 -8
31 33 31 68 180 366 220 439 18 33 43 78 54 100 140 260 311 452 521 585 40
26 181 97 220 111 11 4 29 11 40 15 11 4 22 8 25 8 3 1 11 5 18 9 6 5 12 6 12
3 0 -2 24 2 53 10 28 8 68 17 87 20 19 3 40 7 47 9 7 2 15 -11 20 -33 10 -47
9 -344 -1 -397 -13 -72 -15 -80 -19 -100 -28 -123 -88 -274 -155 -390 -96
-167 -321 -393 -468 -470 -24 -12 -26 -15 -9 -16 66 -4 958 -3 965 1 22 14
110 161 167 280 85 176 78 159 117 285 66 209 90 372 91 613 0 78 4 142 8 142
4 0 45 -18 90 -41 271 -135 509 -376 631 -641 82 -179 130 -388 127 -553 -1
-22 -1 -49 -1 -60 1 -11 1 -24 2 -30 0 -16 -12 -119 -18 -146 -2 -13 -7 -42
-10 -64 -7 -46 -54 -194 -82 -257 -11 -24 -22 -50 -26 -58 -3 -8 -20 -37 -36
-65 -17 -27 -34 -57 -37 -65 -4 -8 -11 -19 -15 -25 -5 -5 -25 -32 -45 -60
-115 -154 -269 -287 -448 -384 -33 -18 -61 -34 -63 -35 -1 -2 231 -3 515 -3
450 0 520 2 535 15 42 36 224 343 211 356 -3 3 -1 6 5 6 7 0 12 9 12 20 0 11
4 20 9 20 5 0 11 10 14 23 3 12 26 80 51 151 25 71 45 132 44 135 0 3 1 8 2
11 2 6 6 24 13 60 3 14 8 36 11 50 5 25 10 55 23 155 10 67 9 384 0 463 -18
154 -78 396 -126 507 -5 11 -14 34 -22 50 -7 17 -13 32 -14 35 -4 20 -105 207
-142 264 -40 62 -112 162 -149 206 -61 73 -206 216 -279 275 -95 77 -190 145
-202 145 -3 0 -14 6 -22 14 -26 23 -198 111 -296 152 -97 39 -315 107 -323 99
-3 -2 -12 0 -21 4 -9 5 -38 12 -66 16 -27 4 -61 9 -75 11 -148 24 -411 23
-585 -1 -87 -13 -273 -58 -349 -86 -45 -17 -85 -31 -91 -33 -53 -16 -206 -91
-294 -144 -161 -96 -270 -182 -408 -319 -45 -46 -83 -83 -85 -83 -2 0 -48 44
-103 98 -108 104 -138 131 -200 176 -22 16 -42 32 -45 36 -15 18 -230 143
-325 187 -104 49 -298 120 -354 129 -14 3 -39 9 -56 14 -16 6 -43 12 -60 14
-16 2 -61 9 -100 14 -38 5 -77 11 -85 12 -27 3 -379 7 -382 4z"/>
<path d="M2569 2123 c-1 -5 -2 -214 -3 -465 l-1 -458 1590 0 1591 0 -2 458
c-1 251 -2 460 -3 465 -1 9 -3171 9 -3172 0z"/>
</g>
</svg>
