<?xml version="1.0" encoding="UTF-8"?>
<svg width="533.33" height="533.33" version="1.1" viewBox="0 0 500 500" xml:space="preserve" xmlns="http://www.w3.org/2000/svg"><g transform="translate(-175.34 -341.9)"><text x="229.74985" y="770.64038" fill="#000000" font-family="sans-serif" letter-spacing="100px" stroke-width="1px" word-spacing="0px" style="line-height:0%" xml:space="preserve"><tspan x="229.74985" y="770.64038" font-size="40px" style="line-height:1.25"> </tspan></text>


<g fill="#29568f"><g transform="matrix(1.3333 0 0 -1.3333 236.24 541.58)"><path d="m0 0h40.953v-10.281h-13.85v-42.732h-13.252v42.732h-13.851z" fill="#29568f"/></g><g transform="matrix(1.3333 0 0 -1.3333 299.92 612.27)"><path d="m0 0v53.013h39.018v-10.281h-25.762v-9.679h24.047v-10.268h-24.047v-12.512h27.997v-10.273z" fill="#29568f"/></g><g transform="matrix(1.3333 0 0 -1.3333 365.07 541.58)"><path d="m0 0h13.247v-21.15l19.001 21.15h17.566l-19.281-20.103 19.875-32.91h-14.742l-14.445 23.525-7.974-8.111v-15.414h-13.247z" fill="#29568f"/></g><g transform="matrix(1.3333 0 0 -1.3333 439.47 541.58)"><path d="m0 0h13.402l19.282-33.878h0.152v33.878h12.062v-53.013h-13.253l-19.434 33.355h-0.148v-33.355h-12.063z" fill="#29568f"/></g><path d="m514.38 541.58h17.677v70.684h-17.677z"/><g transform="matrix(1.3333 0 0 -1.3333 546.99 541.59)"><path d="m0 0h13.258v-21.147l18.977 21.147h17.567l-19.274-20.1 19.871-32.895h-14.742l-14.442 23.514-7.957-8.107v-15.407h-13.258z" fill="#29568f"/></g></g><g fill="#d39100"><g transform="matrix(1.3333 0 0 -1.3333 293 642.71)"><path d="m0 0c-4.116 4.254-9.815 6.863-15.791 6.863-11.533 0-20.876-10.023-20.876-21.422 0-11.402 9.413-21.425 21.014-21.425 5.838 0 11.537 2.746 15.653 6.867v-7.141c-4.461-3.23-9.957-5.086-15.448-5.086-14.624 0-26.983 11.883-26.983 26.578 0 14.832 12.152 26.989 26.983 26.989 5.766 0 10.852-1.649 15.448-5.082z" fill="#d39100"/></g><g transform="matrix(1.3333 0 0 -1.3333 310.21 662.12)"><path d="m0 0c0-11.676 9.473-21.426 21.219-21.426s21.219 9.75 21.219 21.426c0 11.742-9.34 21.422-21.219 21.422s-21.219-9.68-21.219-21.422m48.211-0.07c0-14.899-12.225-26.715-26.992-26.715-14.758 0-26.982 11.816-26.982 26.715 0 14.832 12.224 26.851 26.982 26.851 14.767 0 26.992-12.019 26.992-26.851" fill="#d39100"/></g><g transform="matrix(1.3333 0 0 -1.3333 392.62 689.5)"><path d="m0 0h14.281v-5.355h-20.052v51.777h5.771z" fill="#d39100"/></g><g transform="matrix(1.3333 0 0 -1.3333 426.94 689.5)"><path d="m0 0h14.293v-5.355h-20.059v51.777h5.766z" fill="#d39100"/></g><g transform="matrix(1.3333 0 0 -1.3333 453.59 627.61)"><path d="m0 0h26.848v-5.359h-21.078v-15.379h20.464v-5.356h-20.464v-20.328h21.078v-5.355h-26.848z" fill="#d39100"/></g><g transform="matrix(1.3333 0 0 -1.3333 566.67 661.95)"><path d="m0 0c0.137-7-0.617-12.773-5.359-18.258-4.739-5.504-11.946-8.66-19.153-8.66-14.558 0-26.644 12.09-26.644 26.645 0 14.836 12.086 26.921 26.984 26.921 9.067 0 16.41-4.054 21.91-11.195l-4.191-3.91c-4.328 6.109-10.16 9.746-17.789 9.746-11.809 0-21.149-9.953-21.149-21.629 0-5.496 2.203-10.715 6.039-14.629 3.782-3.777 9.278-6.59 14.704-6.59 8.992 0 18.464 6.59 18.464 16.204h-15.375v5.355z" fill="#d39100"/></g><g transform="matrix(1.3333 0 0 -1.3333 577.56 627.61)"><path d="m0 0h26.849v-5.359h-21.078v-15.379h20.464v-5.356h-20.464v-20.328h21.078v-5.355h-26.849z" fill="#d39100"/></g><path d="m388.36 504.03h74.735v21.839h-74.735z"/></g><g fill="#29568f"><g transform="matrix(1.3333 0 0 -1.3333 440.49 401.76)"><path d="m0 0c0-6.116-4.953-11.075-11.072-11.075-6.108 0-11.069 4.959-11.069 11.075 0 6.112 4.961 11.071 11.069 11.071 6.119 0 11.072-4.959 11.072-11.071" fill="#29568f"/></g><g transform="matrix(1.3333 0 0 -1.3333 357.67 446.86)"><path d="m0 0c0-6.116-4.949-11.071-11.071-11.071-6.11 0-11.069 4.955-11.069 11.071s4.959 11.067 11.069 11.067c6.122 0 11.071-4.951 11.071-11.067" fill="#29568f"/></g><g transform="matrix(1.3333 0 0 -1.3333 523.54 446.86)"><path d="m0 0c0-6.116-4.957-11.071-11.078-11.071-6.11 0-11.07 4.955-11.07 11.071s4.96 11.071 11.07 11.071c6.121 0 11.078-4.955 11.078-11.071" fill="#29568f"/></g><g transform="matrix(1.3333 0 0 -1.3333 389.15 442.24)"><path d="m0 0c4.458 0 8.733-0.821 12.671-2.313 4.062 3.206 9.183 5.121 14.762 5.121 5.652 0 10.836-1.964 14.921-5.242 4.036 1.571 8.415 2.434 13.004 2.434 0.356 0 0.696-0.021 1.047-0.027-6.504 8.951-17.062 14.778-28.972 14.778-11.922 0-22.471-5.834-28.985-14.789 0.516 0.017 1.037 0.038 1.552 0.038" fill="#29568f"/></g><g transform="matrix(1.3333 0 0 -1.3333 461.7 448.65)"><path d="m0 0c-10.762 0-20.406-4.744-26.961-12.26v0.045c-6.57 7.524-16.227 12.278-26.997 12.278-19.779 0-35.811-16.034-35.811-35.81 0-8.165 2.742-15.692 7.34-21.713h18.553c-8.232 3.768-13.953 12.066-13.953 21.713 0 10.109 6.286 18.745 15.159 22.227-0.07-0.905-0.119-1.817-0.119-2.74 0-7.742 2.466-14.898 6.644-20.757h17.385c-7.22 4.102-12.094 11.862-12.094 20.757 0 1.419 0.131 2.806 0.37 4.155 7.642-1.038 13.759-5.536 17.773-12.75 3.143-5.662 4.918-9.435 5.723-11.262v-0.12c0.797 1.809 2.574 5.604 5.746 11.318 4.012 7.217 10.14 11.716 17.785 12.749 0.23-1.328 0.352-2.694 0.352-4.09 0-8.895-4.875-16.655-12.09-20.757h17.39c4.184 5.859 6.637 13.015 6.637 20.757 0 0.9-0.047 1.788-0.113 2.671 8.875-3.483 15.16-12.116 15.16-22.225 0-9.639-5.723-17.943-13.953-21.709h18.547c4.601 6.024 7.34 13.547 7.34 21.709 0 19.776-16.032 35.814-35.813 35.814" fill="#29568f"/></g></g><g fill="#29568f"><path transform="translate(0 4.7412e-6)" d="m332.33 756.18c-4.56 0-8.16 2.46-8.16 6.84 0 3.3 2.46 5.4 5.94 7.38 2.22 1.26 4.62 2.76 4.62 5.52 0 2.58-1.86 3.84-4.02 3.84-3.42 0-5.34-2.88-6.36-6.18-0.3-0.36-1.08-0.3-1.38 0.06-0.12 1.98 0.24 4.92 0.72 6.06 1.5 1.2 3.6 1.8 6.42 1.8 4.44 0 8.64-2.28 8.64-6.84 0-4.26-2.94-6.3-6.12-8.1-2.1-1.2-4.62-2.52-4.62-4.98 0-2.16 1.5-3.66 3.84-3.66 2.46 0 4.26 1.74 5.28 4.38 0.3 0.36 1.2 0.24 1.44-0.18 0-1.62-0.42-3.54-0.96-4.86-0.54-0.48-2.76-1.08-5.28-1.08z"/><path transform="translate(0 4.7412e-6)" d="m358.08 759.54c0.54-0.36 0.66-1.98-0.06-2.52h-6.66c-1.02 0-1.08-0.06-1.08-1.14v-2.7c-0.24-0.42-0.96-0.42-1.26-0.3-0.6 1.2-1.74 2.82-2.52 3.54-0.6 0.54-2.1 1.32-3.84 1.86-0.24 0.36-0.18 1.02 0.18 1.26h1.68c1.2 0 1.26 0.12 1.26 1.74v13.74c0 3.6 1.08 6.48 6.24 6.48 3.06 0 5.22-1.5 6.3-2.76 0.12-0.36-0.12-1.02-0.6-1.02-0.18 0-0.96 0.66-1.5 0.84-0.48 0.18-1.02 0.3-1.62 0.3-3.96 0-4.38-3.18-4.38-6.66v-11.22c0-1.26 0.06-1.44 1.08-1.44z"/><path transform="translate(0 4.7412e-6)" d="m377.8 765.3c2.52 0 3.36-0.06 3.54-0.42 0.12-0.24 0.24-0.72 0.24-1.56 0-3.6-3.36-7.14-8.52-7.14-7.2 0-12.06 6.18-12.06 13.56 0 2.64 0.72 5.46 2.52 7.8 1.74 2.28 4.8 3.96 8.7 3.96 3.12 0 7.44-1.5 9.42-5.58-0.06-0.54-0.48-0.9-1.08-0.72-1.86 2.34-3.54 2.94-5.52 2.94-6.42 0-9.96-5.16-9.96-11.22 0-1.5 0.06-1.62 1.62-1.62zm-11.64-1.8c-0.42 0-0.42-0.18-0.42-0.3 0.06-1.98 3.12-5.22 6.66-5.22 3.48 0 4.62 2.1 4.62 3.78 0 0.78-0.18 1.02-0.36 1.14-0.48 0.36-1.8 0.6-6.24 0.6z"/><path transform="translate(0 4.7412e-6)" d="m388.57 773.94c0 4.32-0.06 4.92-2.28 5.22l-1.26 0.18c-0.42 0.3-0.3 1.32 0.12 1.5 1.68-0.12 3.48-0.18 5.64-0.18 2.1 0 3.84 0.06 5.46 0.18 0.42-0.18 0.54-1.2 0.12-1.5l-1.08-0.18c-2.16-0.36-2.28-0.9-2.28-5.22v-9.18c0-1.74 0.12-2.58 0.9-3.6 0.84-1.14 2.82-2.1 5.1-2.1 4.08 0 5.64 2.52 5.64 5.94v8.94c0 4.32-0.06 4.86-2.28 5.22l-1.14 0.18c-0.42 0.3-0.3 1.32 0.12 1.5 1.62-0.12 3.42-0.18 5.58-0.18 2.1 0 3.84 0.06 5.64 0.18 0.42-0.18 0.54-1.2 0.12-1.5l-1.32-0.18c-2.16-0.3-2.28-0.9-2.28-5.22v-10.32c0-4.02-2.04-7.44-7.02-7.44-3.06 0-5.88 1.5-8.4 3.06-0.42 0-0.66-0.3-0.66-0.66 0-0.54 0-1.44 0.12-2.82-0.12-0.3-0.42-0.42-0.66-0.42-1.2 0.9-4.62 2.46-6 2.94-0.3 0.18-0.3 0.84-0.06 1.08l0.54 0.36c1.62 1.08 1.62 1.38 1.62 3.72z"/><path transform="translate(0 4.7412e-6)" d="m423.75 761.82c0-2.94 0.06-4.2 0.18-5.22-0.06-0.24-0.24-0.36-0.6-0.42-1.32 0.48-3.66 1.02-6.42 1.08-0.42 0.18-0.48 1.02-0.12 1.32l0.72 0.3c1.8 0.78 1.8 1.32 1.8 5.1v10.02c0 4.86 1.98 7.5 7.26 7.5 3.54 0 6.48-1.98 8.28-3.12 0.36 0 0.54 0.3 0.54 0.84v2.46c0.12 0.24 0.42 0.42 0.72 0.42 2.04-1.14 5.52-1.74 7.86-2.22 0.48-0.24 0.42-1.44 0.06-1.74-0.84 0.18-1.62 0.3-2.34 0.3-1.68 0-1.86-1.8-1.86-6.54v-10.08c0-2.22 0.06-4.08 0.18-5.22-0.06-0.24-0.24-0.36-0.54-0.42-1.32 0.6-4.62 1.02-7.02 1.08-0.48 0.24-0.48 1.08-0.06 1.32l0.78 0.3c1.8 0.72 2.22 0.84 2.22 4.74v9.84c0 1.86-0.42 2.76-1.2 3.48-1.32 1.14-3.24 1.8-4.86 1.8-4.56 0-5.58-2.76-5.58-6.9z"/><path transform="translate(0 4.7412e-6)" d="m450.8 773.94c0 4.32-0.06 4.92-2.28 5.22l-1.26 0.18c-0.42 0.3-0.3 1.32 0.12 1.5 1.68-0.12 3.48-0.18 5.64-0.18 2.1 0 3.84 0.06 5.46 0.18 0.42-0.18 0.54-1.2 0.12-1.5l-1.08-0.18c-2.16-0.36-2.28-0.9-2.28-5.22v-9.18c0-1.74 0.12-2.58 0.9-3.6 0.84-1.14 2.82-2.1 5.1-2.1 4.08 0 5.64 2.52 5.64 5.94v8.94c0 4.32-0.06 4.86-2.28 5.22l-1.14 0.18c-0.42 0.3-0.3 1.32 0.12 1.5 1.62-0.12 3.42-0.18 5.58-0.18 2.1 0 3.84 0.06 5.64 0.18 0.42-0.18 0.54-1.2 0.12-1.5l-1.32-0.18c-2.16-0.3-2.28-0.9-2.28-5.22v-10.32c0-4.02-2.04-7.44-7.02-7.44-3.06 0-5.88 1.5-8.4 3.06-0.42 0-0.66-0.3-0.66-0.66 0-0.54 0-1.44 0.12-2.82-0.12-0.3-0.42-0.42-0.66-0.42-1.2 0.9-4.62 2.46-6 2.94-0.3 0.18-0.3 0.84-0.06 1.08l0.54 0.36c1.62 1.08 1.62 1.38 1.62 3.72z"/><path transform="translate(0 4.7412e-6)" d="m498.34 758.34c-1.32 0-1.74-0.12-3.66-0.96-1.38-0.6-3.48-1.2-5.76-1.2-5.34 0-9.78 3.9-9.78 9.06 0 3.84 2.46 6.18 4.5 7.26 0 0.3-0.3 0.78-0.6 1.14-1.02 1.08-2.16 2.1-3.18 2.76-0.66 0.48-0.9 0.72-0.9 1.02 0 2.1 2.04 4.14 4.38 4.74 0.54 0.36 0.06 0.9-0.48 1.44-1.38 1.38-3.06 2.94-4.08 4.02-0.42 0.48-0.66 1.26-0.66 2.22 0 3 2.58 6.96 9.96 6.96 7.8 0 14.94-4.8 14.94-11.34 0-6-5.04-6.6-8.4-6.6-2.64 0-5.1 0.18-7.14 0.18-2.82 0-4.2-1.14-4.2-2.52 0-1.74 1.92-2.88 2.64-3.3 0.72 0.06 1.56 0.18 2.64 0.18 7.62 0 10.08-5.4 10.08-9.54 0-1.02 0-2.04-0.12-3.06h4.32c0.9-0.12 1.02-2.16 0.36-2.46zm-5.64 24.24c4.32 0 6.84 1.56 6.84 5.22 0 3.42-3.54 6.42-8.88 6.42-5.46 0-8.04-2.7-8.04-5.94 0-2.28 1.44-4.14 2.88-5.04 0.84-0.54 3.24-0.66 5.16-0.66zm-3.24-10.92c-2.88 0-5.46-2.76-5.46-7.02 0-4.08 2.16-6.72 5.04-6.72 3.66 0 5.34 3.42 5.34 7.5 0 3.66-1.68 6.24-4.92 6.24z"/><path transform="translate(0 4.7412e-6)" d="m514.32 756.18c-4.56 0-8.16 2.46-8.16 6.84 0 3.3 2.46 5.4 5.94 7.38 2.22 1.26 4.62 2.76 4.62 5.52 0 2.58-1.86 3.84-4.02 3.84-3.42 0-5.34-2.88-6.36-6.18-0.3-0.36-1.08-0.3-1.38 0.06-0.12 1.98 0.24 4.92 0.72 6.06 1.5 1.2 3.6 1.8 6.42 1.8 4.44 0 8.64-2.28 8.64-6.84 0-4.26-2.94-6.3-6.12-8.1-2.1-1.2-4.62-2.52-4.62-4.98 0-2.16 1.5-3.66 3.84-3.66 2.46 0 4.26 1.74 5.28 4.38 0.3 0.36 1.2 0.24 1.44-0.18 0-1.62-0.42-3.54-0.96-4.86-0.54-0.48-2.76-1.08-5.28-1.08z"/><path transform="translate(0 4.7412e-6)" d="m532.04 761.82c0-2.94 0.06-4.2 0.18-5.22-0.06-0.24-0.24-0.36-0.6-0.42-1.32 0.48-3.66 1.02-6.42 1.08-0.42 0.18-0.48 1.02-0.12 1.32l0.72 0.3c1.8 0.78 1.8 1.32 1.8 5.1v10.02c0 4.86 1.98 7.5 7.26 7.5 3.54 0 6.48-1.98 8.28-3.12 0.36 0 0.54 0.3 0.54 0.84v2.46c0.12 0.24 0.42 0.42 0.72 0.42 2.04-1.14 5.52-1.74 7.86-2.22 0.48-0.24 0.42-1.44 0.06-1.74-0.84 0.18-1.62 0.3-2.34 0.3-1.68 0-1.86-1.8-1.86-6.54v-10.08c0-2.22 0.06-4.08 0.18-5.22-0.06-0.24-0.24-0.36-0.54-0.42-1.32 0.6-4.62 1.02-7.02 1.08-0.48 0.24-0.48 1.08-0.06 1.32l0.78 0.3c1.8 0.72 2.22 0.84 2.22 4.74v9.84c0 1.86-0.42 2.76-1.2 3.48-1.32 1.14-3.24 1.8-4.86 1.8-4.56 0-5.58-2.76-5.58-6.9z"/><path transform="translate(0 4.7412e-6)" d="m559.08 773.94c0 4.32-0.06 4.92-2.28 5.22l-1.26 0.18c-0.42 0.3-0.3 1.32 0.12 1.5 1.68-0.12 3.48-0.18 5.64-0.18 2.1 0 3.84 0.06 5.46 0.18 0.42-0.18 0.54-1.2 0.12-1.5l-1.08-0.18c-2.16-0.36-2.28-0.9-2.28-5.22v-9.18c0-1.74 0.12-2.58 0.9-3.6 0.84-1.14 2.82-2.1 5.1-2.1 4.08 0 5.64 2.52 5.64 5.94v8.94c0 4.32-0.06 4.86-2.28 5.22l-1.14 0.18c-0.42 0.3-0.3 1.32 0.12 1.5 1.62-0.12 3.42-0.18 5.58-0.18 2.1 0 3.84 0.06 5.64 0.18 0.42-0.18 0.54-1.2 0.12-1.5l-1.32-0.18c-2.16-0.3-2.28-0.9-2.28-5.22v-10.32c0-4.02-2.04-7.44-7.02-7.44-3.06 0-5.88 1.5-8.4 3.06-0.42 0-0.66-0.3-0.66-0.66 0-0.54 0-1.44 0.12-2.82-0.12-0.3-0.42-0.42-0.66-0.42-1.2 0.9-4.62 2.46-6 2.94-0.3 0.18-0.3 0.84-0.06 1.08l0.54 0.36c1.62 1.08 1.62 1.38 1.62 3.72z"/><path transform="translate(0 4.7412e-6)" d="m610.16 745.56c0-2.64 0.12-5.64 0.18-7.44-0.12-0.24-0.36-0.36-0.6-0.36-2.16 1.14-4.98 2.04-6.48 2.52-0.3 0.18-0.3 1.02 0 1.2l0.6 0.36c1.8 1.08 1.86 1.44 1.86 4.98v9.06c0 0.48-0.06 0.84-0.36 0.84-0.66-0.24-1.98-0.54-4.02-0.54-8.16 0-14.52 5.4-14.52 13.8 0 6.3 4.44 11.52 11.1 11.52 2.88 0 4.92-0.96 7.56-2.76h0.24c0.12 0.24 0.12 0.96 0.12 1.86v1.02c0 0.3 0.3 0.48 0.66 0.48 1.68-0.66 5.4-1.56 7.92-1.92 0.54-0.3 0.48-1.8 0.06-1.92-0.9 0.3-1.92 0.6-2.58 0.6-1.68 0-1.74-2.22-1.74-6.96zm-4.44 29.16c0 0.96-0.06 1.86-0.42 2.22-0.96 0.96-3 1.68-4.62 1.68-5.88 0-8.94-5.16-8.94-10.62 0-5.22 2.82-9.96 8.28-9.96 2.34 0 4.14 1.26 5.04 2.52 0.42 0.6 0.66 1.14 0.66 2.34z"/></g><g fill="#d39100" stroke-width="1px"><path d="m296.75 759.54c0.54-0.36 0.66-1.98-0.06-2.52h-6.66c-1.02 0-1.08-0.06-1.08-1.14v-2.7c-0.24-0.42-0.96-0.42-1.26-0.3-0.6 1.2-1.74 2.82-2.52 3.54-0.6 0.54-2.1 1.32-3.84 1.86-0.24 0.36-0.18 1.02 0.18 1.26h1.68c1.2 0 1.26 0.12 1.26 1.74v13.74c0 3.6 1.08 6.48 6.24 6.48 3.06 0 5.22-1.5 6.3-2.76 0.12-0.36-0.12-1.02-0.6-1.02-0.18 0-0.96 0.66-1.5 0.84-0.48 0.18-1.02 0.3-1.62 0.3-3.96 0-4.38-3.18-4.38-6.66v-11.22c0-1.26 0.06-1.44 1.08-1.44z"/><path d="m314.25 756.18c-9.96 0-14.52 6.9-14.52 13.38 0 3.9 1.38 6.84 3.48 8.88s5.04 3.06 8.22 3.06c3.48 0 7.98-1.68 10.02-6.12-0.06-0.54-0.6-0.96-1.08-0.84-1.38 2.04-3.18 3.6-6.66 3.6-6.42 0-9.66-5.58-9.66-10.26 0-6.36 4.08-9.66 8.28-9.66 2.46 0 4.68 1.56 6 3.18 0.24 0.3 0.54 0.42 0.84 0.42 0.72 0 1.32-1.14 1.32-2.22 0-1.02-0.42-1.98-0.9-2.4-1.62-0.72-3.96-1.02-5.34-1.02z"/></g><g fill="#29568f" stroke-width="1px"><path d="m260.29 761.16c1.32 0 2.28 0.84 2.58 1.74-0.72 1.86-4.2 7.2-7.14 9.78-2.88 2.58-4.44 3.12-4.8 3.12-0.42 0-0.72-0.24-0.72-0.78 0-3.24 2.94-9.36 6.3-12.06 1.56-1.26 2.52-1.8 3.78-1.8zm3.96-0.78c-0.3-0.84-1.44-1.32-2.22-1.32-4.8 0-9.12 4.02-12 7.56-3.54 4.32-4.56 8.16-4.56 9.24 0 1.38 0.78 2.7 2.46 2.7 2.46 0 7.74-3.3 11.34-7.02l0.12 0.06-1.5 3.78c-0.42 1.08-0.48 1.56-0.48 1.86 0 0.42 0.36 1.32 4.32 1.32 9.72 0 15.54-6.78 15.54-14.46 0-8.04-6.24-15.6-17.7-15.6-12.36 0-23.7 8.88-23.7 22.98 0 12.66 10.32 18.54 20.22 18.54 3.36 0 7.98-0.78 11.58-3.06 0.18-0.48-0.06-0.96-0.48-1.14-1.98 0.84-4.98 2.1-9.3 2.1-13.74 0-17.88-9.42-17.88-16.5 0-11.04 7.14-20.88 19.02-20.88 8.82 0 15.66 5.34 15.66 13.8 0 7.56-5.34 12-11.7 12.24-1.56 0.06-1.92-0.54-1.38-1.92 0.96-2.58 6.24-14.82 7.02-16.62-0.54-0.6-1.92-1.08-2.88-0.72z" fill="#29568f"/></g></g></svg>
